<svg id="svg" xmlns="http://www.w3.org/2000/svg" xmlns:xlink="http://www.w3.org/1999/xlink" width="400" height="400" viewBox="0, 0, 400,400"><g id="svgg"><path id="path0" d="M173.828 53.130 C 172.432 53.319,170.762 53.396,170.117 53.300 C 169.167 53.160,169.093 53.195,169.727 53.489 C 170.415 53.808,170.425 53.855,169.812 53.879 C 166.786 53.998,159.567 57.590,152.974 62.257 C 150.205 64.217,147.656 65.769,147.310 65.706 C 146.830 65.620,146.801 65.675,147.191 65.939 C 147.735 66.308,146.039 67.708,145.049 67.708 C 144.783 67.708,144.644 67.836,144.740 67.991 C 144.837 68.147,144.455 68.575,143.893 68.944 C 143.116 69.453,142.800 69.499,142.576 69.136 C 142.346 68.765,142.118 68.763,141.550 69.125 C 140.952 69.506,140.941 69.553,141.491 69.382 C 141.860 69.268,142.256 69.326,142.371 69.511 C 142.667 69.991,138.725 72.735,138.203 72.413 C 137.954 72.259,137.879 72.322,138.027 72.561 C 138.351 73.085,135.191 75.451,134.609 75.119 C 134.373 74.985,134.299 75.007,134.444 75.169 C 134.590 75.332,134.126 75.976,133.414 76.601 C 132.250 77.624,131.652 79.038,131.616 80.859 C 131.486 87.365,124.924 93.165,119.814 91.290 C 118.220 90.705,115.541 90.558,115.856 91.072 C 116.043 91.376,114.807 91.959,114.258 91.826 C 114.043 91.774,113.991 91.855,114.142 92.006 C 114.590 92.455,107.790 97.786,106.769 97.786 C 106.502 97.786,106.363 97.913,106.458 98.068 C 106.554 98.222,106.370 98.566,106.050 98.832 C 105.148 99.581,105.342 101.609,106.437 102.883 C 106.970 103.502,107.318 104.149,107.212 104.321 C 107.105 104.493,107.224 104.761,107.476 104.916 C 107.781 105.105,107.828 105.028,107.617 104.687 C 107.402 104.339,107.453 104.270,107.779 104.471 C 108.041 104.634,108.159 105.022,108.039 105.333 C 107.919 105.645,107.983 105.800,108.181 105.678 C 108.647 105.389,109.807 107.039,109.494 107.546 C 109.348 107.781,109.458 107.807,109.772 107.613 C 110.150 107.379,110.220 107.473,110.032 107.964 C 109.889 108.335,109.935 108.535,110.134 108.412 C 110.601 108.124,111.760 109.774,111.447 110.280 C 111.315 110.493,111.398 110.550,111.632 110.405 C 112.144 110.089,113.348 111.686,113.009 112.233 C 112.878 112.446,112.950 112.509,113.171 112.373 C 113.692 112.051,116.893 116.325,116.548 116.883 C 116.401 117.121,116.465 117.197,116.693 117.056 C 117.077 116.819,119.419 119.465,119.259 119.954 C 118.352 122.724,131.365 114.936,132.760 111.874 C 133.010 111.324,133.372 109.769,133.563 108.418 C 134.763 99.943,142.861 96.672,149.609 101.937 C 151.398 103.333,152.393 103.302,154.652 101.781 C 156.895 100.272,157.226 100.133,156.796 100.879 C 156.633 101.163,156.664 101.231,156.871 101.042 C 157.067 100.863,157.231 100.511,157.236 100.260 C 157.241 100.010,157.547 99.829,157.915 99.858 C 158.284 99.888,158.498 99.771,158.392 99.599 C 158.017 98.992,168.032 92.057,168.447 92.637 C 168.736 93.041,168.774 93.010,168.612 92.502 C 168.456 92.013,169.307 91.178,171.885 89.293 C 176.042 86.253,176.213 85.831,174.675 82.419 C 173.200 79.146,172.653 76.427,173.025 74.219 C 173.380 72.115,174.206 70.258,174.662 70.540 C 174.843 70.652,174.898 70.500,174.783 70.203 C 174.663 69.889,175.290 69.003,176.277 68.093 C 181.100 63.648,186.785 62.355,197.439 63.279 C 203.612 63.815,204.688 63.572,204.688 61.640 C 204.688 59.626,196.136 55.187,190.140 54.088 C 189.336 53.941,188.748 53.708,188.833 53.570 C 188.918 53.433,188.433 53.304,187.756 53.285 C 187.078 53.265,184.238 53.145,181.445 53.017 C 178.652 52.890,175.225 52.941,173.828 53.130 M253.711 55.638 C 252.422 55.938,250.530 56.559,249.507 57.018 C 248.484 57.477,247.446 57.729,247.201 57.577 C 246.941 57.416,246.861 57.473,247.009 57.714 C 247.327 58.228,244.627 59.871,244.050 59.514 C 243.810 59.366,243.742 59.436,243.891 59.679 C 244.036 59.912,243.824 60.335,243.421 60.618 C 242.375 61.353,237.186 66.248,237.891 65.834 C 238.347 65.567,238.334 65.657,237.832 66.241 C 236.810 67.432,234.967 70.732,234.198 72.746 C 233.801 73.787,233.319 74.485,233.093 74.346 C 232.872 74.209,232.809 74.288,232.952 74.520 C 233.096 74.752,232.939 76.528,232.605 78.467 C 232.039 81.747,232.028 87.627,232.586 88.185 C 232.711 88.310,232.813 88.592,232.813 88.812 C 232.813 89.032,232.554 88.871,232.239 88.454 C 231.924 88.037,231.660 87.888,231.653 88.124 C 231.646 88.360,231.995 88.960,232.427 89.459 C 232.923 90.031,233.124 90.648,232.971 91.131 C 232.796 91.684,232.865 91.810,233.223 91.589 C 233.583 91.367,233.657 91.513,233.496 92.127 C 233.375 92.591,233.415 92.884,233.586 92.778 C 234.662 92.113,234.117 94.290,232.868 95.643 C 232.086 96.491,230.837 97.950,230.093 98.885 C 226.416 103.511,222.513 107.770,222.155 107.549 C 221.935 107.413,221.862 107.475,221.994 107.688 C 222.312 108.204,221.143 109.842,220.667 109.548 C 220.461 109.421,220.341 109.550,220.400 109.834 C 220.460 110.119,220.275 110.303,219.990 110.244 C 219.706 110.185,219.575 110.301,219.699 110.502 C 219.995 110.981,216.106 115.625,215.408 115.625 C 215.106 115.625,214.961 115.866,215.078 116.171 C 215.193 116.472,215.100 116.834,214.870 116.976 C 214.641 117.118,214.456 117.619,214.459 118.089 C 214.464 118.773,214.539 118.829,214.830 118.368 C 215.112 117.922,216.201 117.773,219.609 117.713 C 224.183 117.634,226.303 117.831,226.007 118.310 C 225.913 118.463,226.216 118.617,226.682 118.652 C 227.353 118.702,227.408 118.639,226.948 118.348 C 226.389 117.994,226.731 117.775,227.539 117.971 C 228.807 118.278,230.088 118.301,229.911 118.015 C 229.661 117.610,234.799 117.702,235.466 118.114 C 235.725 118.274,236.149 118.275,236.407 118.115 C 236.666 117.955,238.907 117.767,241.388 117.697 L 245.898 117.570 247.070 116.280 C 247.715 115.570,249.209 113.820,250.391 112.390 L 252.539 109.791 255.273 110.049 C 256.777 110.190,258.447 110.316,258.984 110.329 C 259.521 110.341,260.090 110.527,260.248 110.742 C 260.433 110.994,260.537 110.979,260.541 110.700 C 260.544 110.462,261.560 110.162,262.799 110.032 C 265.909 109.707,269.762 108.457,271.969 107.056 C 273.054 106.367,274.105 105.973,274.508 106.102 C 275.003 106.262,275.054 106.222,274.691 105.961 C 274.313 105.689,274.582 105.324,275.754 104.511 C 276.617 103.913,278.108 102.585,279.067 101.559 C 280.027 100.532,280.926 99.806,281.064 99.944 C 281.202 100.082,281.263 100.020,281.199 99.805 C 281.135 99.590,281.590 98.623,282.210 97.656 C 286.737 90.603,288.097 81.734,285.733 74.678 L 284.643 71.427 283.507 72.725 C 282.883 73.439,281.562 75.040,280.572 76.282 C 279.243 77.949,278.678 78.409,278.412 78.039 C 278.145 77.669,278.103 77.703,278.250 78.167 C 278.502 78.964,272.774 86.056,272.176 85.687 C 271.926 85.532,271.867 85.609,272.032 85.876 C 272.193 86.137,271.573 87.106,270.561 88.178 L 268.811 90.030 262.443 88.457 L 256.075 86.884 254.422 83.579 C 253.320 81.376,252.832 79.948,252.959 79.297 C 253.074 78.706,253.021 78.511,252.825 78.802 C 252.606 79.128,252.150 78.570,251.423 77.089 L 250.346 74.892 251.464 73.481 C 252.079 72.705,254.581 69.434,257.024 66.211 C 261.966 59.693,264.445 56.581,265.022 56.174 C 266.429 55.180,257.503 54.757,253.711 55.638 M145.410 58.980 C 144.712 59.406,144.141 59.686,144.141 59.603 C 144.141 59.520,143.595 59.961,142.929 60.584 C 142.263 61.206,141.516 61.600,141.269 61.459 C 141.022 61.318,140.952 61.348,141.113 61.526 C 141.481 61.931,135.901 66.039,135.402 65.730 C 135.200 65.606,135.161 65.707,135.314 65.955 C 135.468 66.203,135.427 66.406,135.224 66.406 C 134.294 66.406,133.498 68.426,134.012 69.482 C 134.287 70.046,134.487 70.620,134.458 70.756 C 134.337 71.321,137.228 70.315,138.489 69.353 C 139.236 68.783,140.050 68.441,140.297 68.593 C 140.561 68.757,140.640 68.699,140.488 68.453 C 140.154 67.913,145.586 63.944,146.168 64.304 C 146.423 64.461,146.497 64.398,146.345 64.153 C 146.202 63.921,146.658 63.339,147.359 62.860 C 151.127 60.282,149.286 56.617,145.410 58.980 M174.802 91.020 C 174.310 91.817,169.845 94.530,169.439 94.279 C 169.208 94.136,169.132 94.201,169.269 94.423 C 169.903 95.449,165.082 97.676,164.373 96.685 C 164.221 96.472,164.126 96.679,164.161 97.143 C 164.212 97.828,164.357 97.917,164.925 97.613 C 166.265 96.896,165.613 97.627,163.800 98.874 C 162.796 99.565,161.751 100.130,161.478 100.130 C 161.205 100.130,161.015 100.314,161.057 100.538 C 161.099 100.762,160.732 100.972,160.242 101.006 C 159.751 101.039,159.224 101.206,159.070 101.377 C 158.915 101.547,159.122 101.567,159.528 101.420 C 160.147 101.197,160.189 101.248,159.786 101.734 C 159.521 102.053,158.988 102.414,158.601 102.537 C 158.158 102.677,157.917 103.104,157.952 103.686 C 157.983 104.196,158.128 104.539,158.274 104.448 C 158.722 104.172,159.720 105.908,159.504 106.588 C 159.346 107.087,159.384 107.111,159.680 106.697 C 160.152 106.035,160.732 106.790,160.312 107.520 C 160.157 107.788,160.175 107.878,160.351 107.718 C 160.526 107.559,160.906 107.624,161.195 107.864 C 161.835 108.395,161.896 109.140,161.268 108.752 C 160.986 108.578,160.923 108.645,161.099 108.930 C 161.255 109.182,161.526 109.299,161.701 109.190 C 162.163 108.905,163.006 110.045,162.700 110.539 C 162.558 110.769,162.617 110.909,162.831 110.850 C 163.375 110.699,166.438 114.866,166.139 115.350 C 166.005 115.568,166.086 115.628,166.320 115.483 C 166.556 115.337,167.053 115.743,167.441 116.399 C 167.824 117.048,168.319 117.594,168.541 117.614 C 168.763 117.634,171.143 117.683,173.828 117.724 C 176.514 117.764,178.887 117.901,179.102 118.029 C 179.316 118.157,179.844 118.133,180.273 117.977 C 180.703 117.820,181.541 117.831,182.136 118.000 C 182.731 118.170,183.143 118.188,183.052 118.039 C 182.960 117.891,185.411 117.729,188.498 117.679 C 193.147 117.604,194.076 117.682,193.904 118.130 C 193.790 118.427,193.865 118.775,194.070 118.902 C 194.275 119.028,194.419 118.833,194.389 118.468 C 194.359 118.088,194.671 117.739,195.117 117.653 C 195.547 117.570,196.074 117.318,196.289 117.092 C 196.554 116.815,196.531 116.766,196.218 116.942 C 195.641 117.266,193.290 114.828,193.540 114.165 C 193.640 113.899,193.559 113.723,193.359 113.774 C 192.999 113.867,188.374 107.930,179.984 96.602 C 175.561 90.631,175.250 90.296,174.802 91.020 M243.359 119.882 C 243.783 120.189,231.637 120.295,199.609 120.264 C 159.660 120.225,155.124 120.283,153.767 120.850 C 152.939 121.196,152.076 121.365,151.851 121.226 C 151.622 121.084,151.557 121.159,151.703 121.396 C 151.938 121.777,150.822 122.392,149.805 122.442 C 149.590 122.452,149.414 122.641,149.414 122.862 C 149.414 123.083,148.747 124.076,147.933 125.071 C 145.537 127.994,144.861 130.517,144.896 136.398 C 144.922 140.612,144.833 141.406,144.338 141.406 C 144.015 141.406,143.764 141.714,143.781 142.090 C 143.799 142.498,143.891 142.577,144.009 142.285 C 144.789 140.352,144.953 142.944,144.845 155.469 C 144.752 166.209,144.831 169.141,145.215 169.141 C 145.483 169.141,145.703 168.946,145.703 168.708 C 145.703 168.470,145.976 168.380,146.309 168.508 C 146.643 168.636,146.826 168.596,146.716 168.418 C 146.468 168.017,149.362 165.142,149.732 165.422 C 149.879 165.534,149.915 165.510,149.810 165.370 C 149.706 165.230,150.310 164.367,151.153 163.452 C 153.314 161.107,153.526 159.909,153.343 151.061 L 153.183 143.366 204.326 143.368 C 232.455 143.369,255.472 143.500,255.475 143.658 C 255.479 143.816,255.473 147.285,255.462 151.367 C 255.452 155.449,255.469 159.668,255.500 160.742 C 255.532 161.816,255.531 162.959,255.498 163.281 C 255.317 165.061,255.684 181.595,255.909 181.821 C 256.107 182.018,261.000 181.376,262.638 180.937 L 263.753 180.638 263.719 155.780 C 263.679 127.498,263.790 128.516,260.342 124.682 C 259.394 123.626,258.744 122.623,258.898 122.452 C 259.053 122.280,258.979 122.255,258.734 122.395 C 258.489 122.535,257.523 122.225,256.586 121.706 C 254.437 120.515,252.712 120.201,248.053 120.153 C 246.009 120.132,243.984 119.967,243.555 119.786 C 242.939 119.527,242.897 119.547,243.359 119.882 M217.773 129.641 C 218.848 129.701,219.507 129.838,219.238 129.946 C 218.550 130.224,218.632 131.059,219.411 131.690 C 219.774 131.985,219.962 132.042,219.827 131.817 C 219.693 131.592,219.744 131.153,219.942 130.841 C 220.203 130.427,220.302 130.615,220.307 131.534 C 220.318 134.038,220.156 134.061,203.947 133.917 C 188.744 133.782,188.925 133.806,188.447 131.873 C 188.192 130.842,188.245 130.759,189.027 130.963 C 189.735 131.148,189.807 131.090,189.431 130.637 C 189.067 130.198,189.137 130.025,189.777 129.789 C 190.517 129.515,213.309 129.395,217.773 129.641 M161.030 160.148 C 160.328 160.314,159.010 160.950,158.100 161.561 C 157.190 162.172,156.300 162.628,156.123 162.576 C 155.946 162.524,155.894 162.631,156.007 162.814 C 156.317 163.314,153.909 166.063,153.424 165.764 C 153.191 165.620,153.116 165.686,153.256 165.911 C 153.565 166.412,148.664 170.788,148.232 170.397 C 148.061 170.243,148.043 170.328,148.191 170.586 C 148.457 171.051,147.000 172.133,146.358 171.948 C 146.181 171.897,146.138 172.021,146.263 172.223 C 146.564 172.711,143.359 175.436,142.852 175.123 C 142.635 174.989,142.569 175.059,142.705 175.279 C 142.840 175.499,141.915 176.581,140.647 177.683 C 138.406 179.633,137.555 180.157,138.123 179.237 C 138.297 178.955,138.230 178.892,137.945 179.068 C 137.693 179.224,137.577 179.497,137.688 179.675 C 137.984 180.154,135.182 182.484,134.682 182.175 C 134.447 182.029,134.364 182.088,134.498 182.305 C 134.801 182.795,133.152 184.389,132.171 184.553 C 131.772 184.620,131.485 184.856,131.533 185.079 C 131.663 185.685,128.926 187.949,128.432 187.644 C 128.188 187.493,128.115 187.558,128.262 187.796 C 128.588 188.324,125.044 191.479,124.501 191.144 C 124.280 191.007,124.208 191.072,124.342 191.289 C 124.688 191.849,121.912 194.986,121.354 194.667 C 121.103 194.523,121.022 194.543,121.174 194.711 C 121.325 194.879,120.729 196.077,119.849 197.373 C 118.150 199.875,116.084 204.395,114.241 209.641 C 113.624 211.398,112.952 212.733,112.749 212.608 C 112.546 212.482,112.487 212.553,112.618 212.766 C 112.931 213.272,112.078 216.042,111.685 215.799 C 111.518 215.696,111.255 215.818,111.099 216.070 C 110.914 216.369,110.987 216.422,111.310 216.222 C 111.677 215.995,111.734 216.153,111.531 216.846 C 110.803 219.337,110.372 220.250,110.025 220.036 C 109.814 219.906,109.770 220.003,109.925 220.255 C 110.388 221.004,105.745 232.994,103.295 237.375 C 100.633 242.135,93.771 247.752,91.509 247.023 C 91.044 246.873,90.976 246.914,91.299 247.148 C 91.941 247.614,86.222 250.459,85.264 250.150 C 84.681 249.962,84.664 249.994,85.156 250.348 C 85.539 250.623,85.576 250.771,85.264 250.775 C 85.001 250.779,83.513 251.401,81.957 252.158 C 80.402 252.915,78.894 253.444,78.607 253.334 C 78.319 253.224,78.176 253.282,78.288 253.463 C 78.562 253.906,76.615 254.766,76.082 254.437 C 75.850 254.293,75.770 254.353,75.903 254.569 C 76.037 254.785,75.440 255.195,74.577 255.479 C 72.558 256.146,72.486 256.307,73.464 257.965 C 73.913 258.726,74.152 259.558,73.994 259.813 C 73.832 260.075,73.874 260.174,74.090 260.041 C 74.616 259.716,76.207 263.100,75.931 263.957 C 75.764 264.472,75.803 264.515,76.081 264.127 C 76.373 263.720,76.501 263.784,76.667 264.421 C 76.808 264.958,76.726 265.159,76.428 265.011 C 76.180 264.887,76.302 265.051,76.699 265.375 C 77.120 265.718,77.299 266.163,77.127 266.441 C 76.954 266.721,76.995 266.817,77.226 266.674 C 77.750 266.350,78.554 268.166,78.273 269.038 C 78.115 269.529,78.155 269.583,78.412 269.226 C 78.666 268.873,79.389 270.025,80.863 273.132 C 82.013 275.556,84.416 280.566,86.204 284.266 C 89.602 291.301,89.734 291.626,89.002 291.174 C 88.720 291.000,88.657 291.067,88.834 291.352 C 88.989 291.604,89.254 291.725,89.422 291.621 C 89.880 291.338,93.085 298.324,92.748 298.870 C 92.563 299.169,92.623 299.237,92.912 299.059 C 93.447 298.728,94.143 300.309,93.828 301.138 C 93.710 301.448,93.790 301.584,94.010 301.448 C 94.501 301.144,95.811 303.807,95.454 304.384 C 95.310 304.617,95.366 304.701,95.578 304.569 C 96.034 304.287,97.382 306.918,97.054 307.449 C 96.930 307.649,96.996 307.813,97.200 307.813 C 97.740 307.813,99.288 311.290,98.974 311.798 C 98.827 312.036,98.883 312.121,99.098 311.989 C 99.313 311.856,99.896 312.615,100.393 313.676 C 101.223 315.450,103.253 316.522,103.000 315.054 C 102.961 314.831,103.230 314.672,103.598 314.700 C 103.966 314.729,104.229 314.618,104.184 314.455 C 103.974 313.698,116.167 305.665,116.868 306.099 C 117.157 306.277,117.198 306.193,116.988 305.853 C 116.754 305.475,116.848 305.405,117.339 305.593 C 117.725 305.741,117.911 305.692,117.778 305.477 C 117.494 305.017,122.929 302.224,123.463 302.555 C 123.675 302.686,123.799 302.582,123.740 302.325 C 123.427 300.960,136.581 296.630,140.039 296.959 C 141.135 297.063,141.212 296.982,141.234 295.703 C 141.247 294.951,141.391 288.887,141.554 282.227 C 141.717 275.566,141.914 267.399,141.991 264.078 L 142.130 258.038 140.173 260.269 C 139.097 261.496,137.967 262.500,137.663 262.500 C 137.358 262.500,137.153 262.720,137.207 262.988 C 137.261 263.257,137.072 263.428,136.787 263.369 C 136.503 263.310,136.369 263.422,136.491 263.619 C 136.612 263.815,136.094 264.446,135.340 265.021 L 133.970 266.066 134.827 264.303 C 135.298 263.332,135.791 262.605,135.922 262.686 C 136.053 262.767,136.176 262.539,136.195 262.178 C 136.214 261.818,137.052 259.546,138.057 257.129 C 141.810 248.104,143.021 239.985,142.935 224.414 C 142.868 212.143,143.266 209.051,145.368 205.523 C 146.545 203.548,148.876 201.155,149.343 201.444 C 149.556 201.575,149.621 201.507,149.488 201.291 C 149.277 200.950,151.565 198.683,156.578 194.269 C 157.352 193.587,158.149 193.131,158.350 193.255 C 158.550 193.379,158.608 193.308,158.478 193.097 C 158.347 192.886,159.386 191.584,160.785 190.204 C 162.184 188.824,164.309 186.421,165.508 184.863 C 166.706 183.306,167.867 182.031,168.088 182.031 C 168.309 182.031,168.380 181.922,168.247 181.788 C 168.113 181.655,168.454 180.657,169.004 179.571 C 170.991 175.650,171.737 171.557,171.057 168.305 C 169.797 162.287,165.783 159.021,161.030 160.148 M271.484 182.252 C 266.879 183.258,257.184 184.729,256.356 184.548 C 255.524 184.366,255.409 184.408,255.859 184.728 C 256.337 185.067,256.261 185.145,255.448 185.150 C 250.565 185.180,245.602 192.309,246.858 197.489 C 247.115 198.548,247.350 199.709,247.379 200.069 C 247.409 200.429,247.601 200.620,247.806 200.493 C 248.021 200.360,248.070 200.547,247.922 200.933 C 247.781 201.301,247.795 201.523,247.954 201.425 C 248.112 201.327,248.945 201.951,249.805 202.811 C 253.325 206.333,256.107 206.602,267.319 204.507 C 279.174 202.291,282.831 199.428,282.811 192.383 C 282.802 189.593,278.783 182.476,277.653 183.250 C 277.590 183.293,276.924 183.139,276.172 182.908 C 274.492 182.392,272.270 182.081,271.484 182.252 M188.072 197.140 C 186.669 197.419,186.170 198.781,186.143 202.409 C 186.130 204.270,186.238 205.719,186.385 205.629 C 186.532 205.538,186.720 205.668,186.803 205.917 C 187.269 207.315,194.251 207.041,195.204 205.587 C 195.929 204.480,196.054 199.023,195.370 198.339 C 195.058 198.026,195.071 197.741,195.419 197.294 C 195.823 196.777,195.806 196.749,195.313 197.120 C 194.962 197.383,194.412 197.433,193.945 197.245 C 193.144 196.922,189.494 196.857,188.072 197.140 M215.576 197.070 C 215.549 197.178,215.505 197.427,215.479 197.624 C 215.452 197.821,215.298 198.114,215.137 198.275 C 214.681 198.730,214.792 204.537,215.276 205.600 C 216.079 207.363,222.054 207.334,223.449 205.561 C 224.540 204.174,224.555 199.330,223.473 197.992 C 222.666 196.996,217.918 196.626,216.245 197.430 C 215.704 197.690,215.575 197.662,215.779 197.332 C 215.935 197.081,215.963 196.875,215.843 196.875 C 215.723 196.875,215.603 196.963,215.576 197.070 M151.922 202.705 C 151.202 203.334,150.471 203.760,150.297 203.653 C 150.123 203.545,150.020 203.602,150.069 203.780 C 150.118 203.957,149.413 205.236,148.504 206.622 C 145.487 211.222,144.755 215.860,145.324 226.773 C 145.654 233.114,145.336 242.756,144.766 243.688 C 144.337 244.390,143.762 262.110,144.168 262.109 C 144.446 262.109,144.334 266.289,144.024 267.480 C 143.898 267.964,143.961 268.359,144.163 268.359 C 144.369 268.359,144.531 270.081,144.531 272.266 C 144.531 274.414,144.385 276.172,144.207 276.172 C 143.819 276.172,143.829 277.842,144.218 278.136 C 144.368 278.249,144.519 286.553,144.554 296.589 C 144.591 307.129,144.764 314.746,144.965 314.622 C 145.156 314.504,145.313 314.711,145.313 315.082 C 145.313 315.453,145.830 316.675,146.463 317.796 C 147.096 318.917,147.535 319.942,147.440 320.073 C 147.344 320.205,147.378 320.230,147.514 320.129 C 147.651 320.028,148.637 320.731,149.705 321.691 C 150.773 322.652,151.814 323.438,152.018 323.438 C 152.223 323.438,152.264 323.640,152.111 323.888 C 151.938 324.169,152.004 324.233,152.287 324.059 C 152.537 323.904,153.115 323.896,153.571 324.041 C 154.220 324.247,154.283 324.377,153.860 324.640 C 153.557 324.829,175.278 324.939,203.328 324.891 L 253.337 324.805 255.915 323.535 C 257.449 322.780,259.187 321.514,260.204 320.410 C 261.145 319.390,262.059 318.603,262.236 318.662 C 262.413 318.721,262.455 318.602,262.328 318.397 C 262.202 318.193,262.496 317.090,262.983 315.946 C 263.853 313.902,263.869 313.571,263.972 296.031 L 264.076 278.195 261.924 278.258 C 260.740 278.292,259.771 278.452,259.769 278.613 C 259.767 278.774,259.282 278.909,258.691 278.912 C 256.911 278.920,255.943 279.326,255.726 280.154 C 255.591 280.672,255.347 280.836,255.007 280.636 C 254.724 280.470,254.800 280.686,255.176 281.116 C 255.849 281.886,256.157 283.824,255.546 283.446 C 255.373 283.339,255.274 283.725,255.326 284.302 C 255.505 286.307,255.536 287.322,255.515 290.430 C 255.503 292.148,255.550 294.434,255.618 295.508 C 255.686 296.582,255.664 297.673,255.570 297.932 C 255.438 298.296,244.062 298.403,205.457 298.407 C 177.989 298.409,155.089 298.518,154.568 298.649 C 153.179 298.997,153.248 301.625,153.287 249.707 C 153.307 223.228,153.302 201.563,153.277 201.563 C 153.252 201.563,152.642 202.077,151.922 202.705 M265.625 206.555 C 265.303 206.665,264.893 207.004,264.713 207.308 C 264.534 207.611,264.007 207.811,263.542 207.751 C 263.076 207.690,262.520 207.749,262.305 207.881 C 262.090 208.012,260.182 208.414,258.065 208.773 C 255.948 209.131,253.780 209.591,253.247 209.793 C 252.714 209.996,252.113 210.060,251.911 209.935 C 251.709 209.810,251.591 209.856,251.650 210.038 C 251.710 210.220,250.983 211.068,250.036 211.923 C 243.474 217.845,246.373 228.037,255.090 229.690 C 257.548 230.156,272.860 227.559,276.248 226.102 C 281.625 223.789,284.106 217.511,281.652 212.431 C 281.241 211.580,280.953 210.676,281.013 210.422 C 281.073 210.169,281.048 210.094,280.957 210.257 C 280.866 210.420,279.987 209.845,279.003 208.979 C 278.019 208.113,276.805 207.301,276.305 207.176 C 275.805 207.051,275.466 206.835,275.551 206.697 C 275.800 206.295,273.489 206.299,270.188 206.706 C 268.301 206.938,266.957 206.943,266.672 206.718 C 266.418 206.518,265.947 206.445,265.625 206.555 M172.167 208.978 C 170.809 210.046,170.533 211.443,171.374 212.992 C 171.752 213.688,172.068 214.521,172.075 214.844 C 172.083 215.166,172.358 215.386,172.687 215.332 C 173.291 215.234,176.057 217.785,175.882 218.279 C 175.830 218.426,176.009 218.548,176.279 218.551 C 176.549 218.553,177.295 218.963,177.936 219.463 C 178.577 219.962,178.855 220.242,178.553 220.086 C 178.189 219.897,178.100 219.955,178.287 220.259 C 178.442 220.510,178.717 220.625,178.896 220.514 C 179.268 220.284,184.838 223.617,184.755 224.020 C 184.725 224.165,184.831 224.401,184.991 224.544 C 185.151 224.687,185.137 224.555,184.959 224.250 C 184.716 223.831,184.805 223.759,185.319 223.957 C 185.695 224.101,186.207 224.221,186.458 224.225 C 186.739 224.228,186.704 224.364,186.366 224.578 C 185.959 224.836,186.059 224.924,186.757 224.921 C 187.273 224.919,189.189 225.387,191.016 225.961 C 203.068 229.752,217.796 228.699,228.320 223.295 C 230.039 222.412,231.677 221.714,231.960 221.743 C 232.243 221.773,232.374 221.697,232.252 221.575 C 231.915 221.238,236.066 218.396,236.519 218.652 C 236.736 218.775,236.802 218.750,236.666 218.597 C 236.529 218.444,237.368 217.420,238.529 216.322 C 242.374 212.686,242.945 210.726,240.679 208.943 C 239.255 207.823,237.530 208.177,235.236 210.058 C 231.489 213.132,226.083 216.248,225.317 215.775 C 225.076 215.626,224.986 215.678,225.117 215.889 C 225.248 216.101,224.265 216.656,222.931 217.123 C 218.325 218.737,210.035 220.228,211.719 219.141 C 212.190 218.836,212.128 218.761,211.403 218.756 C 210.900 218.753,210.608 218.923,210.742 219.141 C 210.875 219.355,210.929 219.542,210.863 219.556 C 208.905 219.949,207.459 219.889,207.639 219.420 C 207.756 219.114,207.601 218.880,207.281 218.880 C 206.939 218.880,206.804 219.112,206.939 219.464 C 207.130 219.961,206.764 220.009,204.460 219.792 C 202.974 219.652,201.176 219.536,200.465 219.534 C 199.754 219.532,199.253 219.399,199.351 219.238 C 199.448 219.077,198.789 218.925,197.884 218.901 C 196.238 218.856,188.281 216.583,188.281 216.158 C 188.281 216.034,188.554 216.037,188.887 216.165 C 189.221 216.293,189.394 216.235,189.271 216.037 C 189.149 215.840,188.565 215.691,187.974 215.708 C 186.675 215.745,184.259 214.566,184.578 214.050 C 184.703 213.847,184.570 213.771,184.282 213.882 C 183.426 214.211,177.505 210.126,178.049 209.581 C 178.198 209.432,178.145 209.361,177.930 209.423 C 177.715 209.485,176.977 209.236,176.289 208.869 C 174.646 207.994,173.376 208.027,172.167 208.978 M267.383 230.854 C 265.234 231.237,261.290 231.920,258.617 232.373 C 255.944 232.825,253.058 233.541,252.204 233.963 C 251.350 234.386,250.501 234.638,250.316 234.524 C 250.132 234.410,250.029 234.550,250.088 234.834 C 250.147 235.121,249.934 235.293,249.609 235.221 C 249.287 235.150,249.148 235.215,249.300 235.367 C 249.451 235.519,249.149 236.202,248.628 236.886 C 245.269 241.289,245.776 246.977,249.869 250.822 C 252.841 253.614,255.546 254.036,262.227 252.748 C 264.418 252.325,268.108 251.624,270.427 251.190 C 272.746 250.755,275.001 250.208,275.438 249.975 C 275.875 249.741,276.492 249.649,276.809 249.770 C 277.125 249.892,277.293 249.843,277.180 249.661 C 277.068 249.479,277.660 248.782,278.495 248.111 C 282.675 244.751,283.319 237.430,279.759 233.733 C 279.316 233.272,279.031 232.789,279.125 232.659 C 279.220 232.528,279.195 232.495,279.070 232.584 C 278.945 232.673,278.221 232.324,277.461 231.808 C 274.714 229.944,273.256 229.806,267.383 230.854 M268.975 253.468 C 268.882 253.618,269.263 253.778,269.821 253.824 C 270.379 253.871,270.713 253.786,270.563 253.636 C 270.176 253.249,269.176 253.143,268.975 253.468 M269.141 254.332 C 267.314 254.506,262.920 255.170,259.375 255.807 C 255.828 256.444,252.871 256.804,252.799 256.607 C 252.618 256.110,251.563 256.158,251.563 256.664 C 251.563 256.891,251.738 256.969,251.953 256.836 C 252.168 256.703,252.338 256.737,252.331 256.911 C 252.316 257.308,248.746 259.554,248.311 259.440 C 248.134 259.394,248.081 259.505,248.194 259.688 C 248.307 259.871,247.969 260.872,247.442 261.913 C 246.915 262.953,246.484 264.049,246.484 264.347 C 246.484 264.646,246.334 264.797,246.150 264.683 C 245.966 264.570,245.891 264.955,245.983 265.539 C 246.575 269.294,247.049 270.825,248.043 272.198 C 248.661 273.051,249.047 273.870,248.900 274.017 C 248.753 274.164,248.809 274.230,249.023 274.164 C 249.238 274.099,250.205 274.509,251.172 275.076 C 252.748 276.000,258.021 277.215,257.616 276.561 C 257.366 276.156,266.868 274.572,267.969 274.834 C 268.638 274.994,268.782 274.952,268.428 274.700 C 268.064 274.441,268.644 274.189,270.381 273.850 C 275.680 272.817,278.672 269.430,279.272 263.783 C 279.414 262.448,279.452 261.434,279.356 261.529 C 279.260 261.625,278.797 260.872,278.325 259.855 C 277.854 258.839,277.178 257.768,276.824 257.475 C 276.470 257.182,276.279 256.783,276.401 256.587 C 276.522 256.391,276.476 256.263,276.299 256.302 C 275.636 256.450,274.623 255.761,274.870 255.330 C 275.010 255.084,274.994 255.000,274.834 255.144 C 274.674 255.287,274.014 255.220,273.367 254.995 C 272.501 254.693,272.329 254.497,272.716 254.252 C 273.006 254.068,273.066 253.940,272.852 253.967 C 272.637 253.993,270.967 254.158,269.141 254.332 M84.389 282.246 C 84.396 282.450,84.667 283.057,84.991 283.594 L 85.579 284.570 85.324 283.594 C 85.057 282.575,84.364 281.575,84.389 282.246 M143.849 300.586 C 143.853 301.445,143.933 301.751,144.026 301.265 C 144.120 300.779,144.116 300.076,144.018 299.702 C 143.921 299.329,143.844 299.727,143.849 300.586 M207.445 305.207 C 207.859 305.497,208.067 305.865,207.908 306.025 C 207.748 306.184,207.793 306.280,208.008 306.236 C 208.881 306.060,209.370 306.291,209.791 307.078 C 210.035 307.534,210.066 307.803,209.861 307.676 C 209.646 307.543,209.566 307.854,209.672 308.410 C 209.774 308.941,210.006 309.375,210.190 309.375 C 210.373 309.375,210.423 309.067,210.302 308.691 C 210.117 308.114,210.148 308.099,210.504 308.594 C 210.736 308.916,210.928 309.932,210.932 310.852 C 210.961 319.203,198.543 320.030,197.746 311.730 C 197.239 306.462,203.360 302.345,207.445 305.207 " stroke="none" fill="#000000" fill-rule="evenodd"></path></g></svg>